<mxfile host="Electron" modified="2023-11-13T13:45:10.406Z" agent="Mozilla/5.0 (Macintosh; Intel Mac OS X 10_15_7) AppleWebKit/537.36 (KHTML, like Gecko) draw.io/22.0.3 Chrome/114.0.5735.289 Electron/25.8.4 Safari/537.36" etag="8ZnqgTqh0ME3L4t3FSSx" version="22.0.3" type="device">
  <diagram name="Page-1" id="Rsnn_ZEz_QR4m3hk7b2z">
    <mxGraphModel dx="1085" dy="993" grid="1" gridSize="10" guides="1" tooltips="1" connect="1" arrows="1" fold="1" page="1" pageScale="1" pageWidth="827" pageHeight="1169" math="0" shadow="0">
      <root>
        <mxCell id="0" />
        <mxCell id="1" parent="0" />
        <mxCell id="ZOrwr1EnmbZ73qofRrRA-3" value="" style="edgeStyle=orthogonalEdgeStyle;rounded=0;orthogonalLoop=1;jettySize=auto;entryX=0.25;entryY=0;entryDx=0;entryDy=0;fontColor=#0060ad;strokeColor=#0060ad;strokeWidth=2;fontStyle=1;align=center;labelPosition=center;verticalLabelPosition=middle;verticalAlign=middle;" parent="1" source="ZOrwr1EnmbZ73qofRrRA-1" target="ZOrwr1EnmbZ73qofRrRA-2" edge="1">
          <mxGeometry relative="1" as="geometry">
            <Array as="points">
              <mxPoint x="280" y="90" />
            </Array>
          </mxGeometry>
        </mxCell>
        <mxCell id="ZOrwr1EnmbZ73qofRrRA-10" value="Update" style="edgeLabel;align=center;verticalAlign=bottom;resizable=0;points=[];fontColor=#0060AD;horizontal=1;labelPosition=center;verticalLabelPosition=middle;" parent="ZOrwr1EnmbZ73qofRrRA-3" vertex="1" connectable="0">
          <mxGeometry x="0.0882" y="-1" relative="1" as="geometry">
            <mxPoint as="offset" />
          </mxGeometry>
        </mxCell>
        <mxCell id="ZOrwr1EnmbZ73qofRrRA-12" value="" style="edgeStyle=orthogonalEdgeStyle;rounded=0;orthogonalLoop=1;jettySize=auto;entryX=0.5;entryY=0;entryDx=0;entryDy=0;fontColor=#0060AD;fontStyle=1;strokeWidth=2;strokeColor=#0060AD;" parent="1" source="ZOrwr1EnmbZ73qofRrRA-1" target="ZOrwr1EnmbZ73qofRrRA-9" edge="1">
          <mxGeometry relative="1" as="geometry" />
        </mxCell>
        <mxCell id="ZOrwr1EnmbZ73qofRrRA-20" value="Updates" style="edgeLabel;align=center;verticalAlign=bottom;resizable=0;points=[];fontColor=#0060AD;horizontal=1;labelPosition=center;verticalLabelPosition=middle;" parent="ZOrwr1EnmbZ73qofRrRA-12" vertex="1" connectable="0">
          <mxGeometry x="-0.2685" relative="1" as="geometry">
            <mxPoint as="offset" />
          </mxGeometry>
        </mxCell>
        <mxCell id="ZOrwr1EnmbZ73qofRrRA-1" value="Controller" style="rounded=0;fillColor=none;fontFamily=Open Sans;fontColor=#0060ad;strokeColor=#0060ad;strokeWidth=2;fontStyle=1" parent="1" vertex="1">
          <mxGeometry x="420" y="80" width="120" height="60" as="geometry" />
        </mxCell>
        <mxCell id="ZOrwr1EnmbZ73qofRrRA-11" value="" style="edgeStyle=orthogonalEdgeStyle;rounded=0;orthogonalLoop=1;jettySize=auto;exitX=0.75;exitY=0;exitDx=0;exitDy=0;entryX=0;entryY=0.75;entryDx=0;entryDy=0;fontColor=#0060AD;fontStyle=1;strokeWidth=2;strokeColor=#0060AD;" parent="1" source="ZOrwr1EnmbZ73qofRrRA-2" target="ZOrwr1EnmbZ73qofRrRA-1" edge="1">
          <mxGeometry relative="1" as="geometry" />
        </mxCell>
        <mxCell id="ZOrwr1EnmbZ73qofRrRA-17" value="User Actions" style="edgeLabel;align=center;verticalAlign=bottom;resizable=0;points=[];fontColor=#0060AD;horizontal=1;labelPosition=center;verticalLabelPosition=middle;spacingBottom=4;" parent="ZOrwr1EnmbZ73qofRrRA-11" vertex="1" connectable="0">
          <mxGeometry x="0.2774" y="-3" relative="1" as="geometry">
            <mxPoint y="1" as="offset" />
          </mxGeometry>
        </mxCell>
        <mxCell id="ZOrwr1EnmbZ73qofRrRA-14" value="" style="edgeStyle=orthogonalEdgeStyle;rounded=0;orthogonalLoop=1;jettySize=auto;exitX=1;exitY=0.75;exitDx=0;exitDy=0;entryX=0;entryY=0.75;entryDx=0;entryDy=0;fontColor=#0060AD;fontStyle=1;strokeWidth=2;strokeColor=#0060AD;" parent="1" source="ZOrwr1EnmbZ73qofRrRA-2" target="ZOrwr1EnmbZ73qofRrRA-9" edge="1">
          <mxGeometry relative="1" as="geometry" />
        </mxCell>
        <mxCell id="ZOrwr1EnmbZ73qofRrRA-19" value="Gets updated state" style="edgeLabel;align=center;verticalAlign=bottom;resizable=0;points=[];fontColor=#0060AD;horizontal=1;labelPosition=center;verticalLabelPosition=middle;" parent="ZOrwr1EnmbZ73qofRrRA-14" vertex="1" connectable="0">
          <mxGeometry x="0.1826" relative="1" as="geometry">
            <mxPoint as="offset" />
          </mxGeometry>
        </mxCell>
        <mxCell id="ZOrwr1EnmbZ73qofRrRA-2" value="View" style="rounded=0;fontFamily=Open Sans;fillColor=none;fontColor=#0060ad;strokeColor=#0060ad;strokeWidth=2;fontStyle=1;" parent="1" vertex="1">
          <mxGeometry x="250" y="200" width="120" height="60" as="geometry" />
        </mxCell>
        <mxCell id="ZOrwr1EnmbZ73qofRrRA-13" value="" style="edgeStyle=orthogonalEdgeStyle;rounded=0;orthogonalLoop=1;jettySize=auto;exitX=0;exitY=0.25;exitDx=0;exitDy=0;entryX=1;entryY=0.25;entryDx=0;entryDy=0;fontColor=#0060AD;fontStyle=1;strokeColor=#0060AD;strokeWidth=2;" parent="1" source="ZOrwr1EnmbZ73qofRrRA-9" target="ZOrwr1EnmbZ73qofRrRA-2" edge="1">
          <mxGeometry relative="1" as="geometry" />
        </mxCell>
        <mxCell id="ZOrwr1EnmbZ73qofRrRA-18" value="Notifies" style="edgeLabel;align=center;verticalAlign=bottom;resizable=0;points=[];fontColor=#0060AD;horizontal=1;labelPosition=center;verticalLabelPosition=middle;" parent="ZOrwr1EnmbZ73qofRrRA-13" vertex="1" connectable="0">
          <mxGeometry x="-0.178" y="-1" relative="1" as="geometry">
            <mxPoint as="offset" />
          </mxGeometry>
        </mxCell>
        <mxCell id="ZOrwr1EnmbZ73qofRrRA-9" value="Model" style="rounded=0;fontFamily=Open Sans;fillColor=none;fontColor=#0060ad;strokeColor=#0060ad;strokeWidth=2;fontStyle=1;" parent="1" vertex="1">
          <mxGeometry x="600" y="200" width="120" height="60" as="geometry" />
        </mxCell>
        <mxCell id="ZOrwr1EnmbZ73qofRrRA-16" value="Classic MVC" style="text;html=1;align=center;verticalAlign=middle;resizable=0;points=[];autosize=1;strokeColor=none;fillColor=none;" parent="1" vertex="1">
          <mxGeometry x="225" y="18" width="90" height="30" as="geometry" />
        </mxCell>
        <mxCell id="ZOrwr1EnmbZ73qofRrRA-21" value="" style="edgeStyle=orthogonalEdgeStyle;rounded=0;orthogonalLoop=1;jettySize=auto;entryX=0.25;entryY=0;entryDx=0;entryDy=0;fontColor=#0060ad;strokeColor=#0060ad;strokeWidth=2;fontStyle=1;align=center;labelPosition=center;verticalLabelPosition=middle;verticalAlign=middle;" parent="1" source="ZOrwr1EnmbZ73qofRrRA-25" target="ZOrwr1EnmbZ73qofRrRA-30" edge="1">
          <mxGeometry relative="1" as="geometry">
            <Array as="points">
              <mxPoint x="287.5" y="382" />
            </Array>
          </mxGeometry>
        </mxCell>
        <mxCell id="ZOrwr1EnmbZ73qofRrRA-22" value="Update" style="edgeLabel;align=center;verticalAlign=bottom;resizable=0;points=[];fontColor=#0060AD;horizontal=1;labelPosition=center;verticalLabelPosition=middle;" parent="ZOrwr1EnmbZ73qofRrRA-21" vertex="1" connectable="0">
          <mxGeometry x="0.0882" y="-1" relative="1" as="geometry">
            <mxPoint as="offset" />
          </mxGeometry>
        </mxCell>
        <mxCell id="ZOrwr1EnmbZ73qofRrRA-23" value="" style="edgeStyle=orthogonalEdgeStyle;rounded=0;orthogonalLoop=1;jettySize=auto;entryX=0.5;entryY=0;entryDx=0;entryDy=0;fontColor=#0060AD;fontStyle=1;strokeWidth=2;strokeColor=#0060AD;exitX=1;exitY=0.25;exitDx=0;exitDy=0;" parent="1" source="ZOrwr1EnmbZ73qofRrRA-25" target="ZOrwr1EnmbZ73qofRrRA-33" edge="1">
          <mxGeometry relative="1" as="geometry" />
        </mxCell>
        <mxCell id="ZOrwr1EnmbZ73qofRrRA-24" value="Updates" style="edgeLabel;align=center;verticalAlign=bottom;resizable=0;points=[];fontColor=#0060AD;horizontal=1;labelPosition=center;verticalLabelPosition=middle;" parent="ZOrwr1EnmbZ73qofRrRA-23" vertex="1" connectable="0">
          <mxGeometry x="-0.2685" relative="1" as="geometry">
            <mxPoint as="offset" />
          </mxGeometry>
        </mxCell>
        <mxCell id="ZOrwr1EnmbZ73qofRrRA-25" value="Controller" style="rounded=0;fillColor=none;fontFamily=Open Sans;fontColor=#0060ad;strokeColor=#0060ad;strokeWidth=2;fontStyle=1" parent="1" vertex="1">
          <mxGeometry x="427.5" y="372" width="120" height="60" as="geometry" />
        </mxCell>
        <mxCell id="ZOrwr1EnmbZ73qofRrRA-26" value="" style="edgeStyle=orthogonalEdgeStyle;rounded=0;orthogonalLoop=1;jettySize=auto;exitX=0.75;exitY=0;exitDx=0;exitDy=0;entryX=0;entryY=0.75;entryDx=0;entryDy=0;fontColor=#0060AD;fontStyle=1;strokeWidth=2;strokeColor=#0060AD;" parent="1" source="ZOrwr1EnmbZ73qofRrRA-30" target="ZOrwr1EnmbZ73qofRrRA-25" edge="1">
          <mxGeometry relative="1" as="geometry" />
        </mxCell>
        <mxCell id="ZOrwr1EnmbZ73qofRrRA-27" value="User Actions" style="edgeLabel;align=center;verticalAlign=bottom;resizable=0;points=[];fontColor=#0060AD;horizontal=1;labelPosition=center;verticalLabelPosition=middle;spacingBottom=4;" parent="ZOrwr1EnmbZ73qofRrRA-26" vertex="1" connectable="0">
          <mxGeometry x="0.2774" y="-3" relative="1" as="geometry">
            <mxPoint y="1" as="offset" />
          </mxGeometry>
        </mxCell>
        <mxCell id="ZOrwr1EnmbZ73qofRrRA-30" value="View" style="rounded=0;fontFamily=Open Sans;fillColor=none;fontColor=#0060ad;strokeColor=#0060ad;strokeWidth=2;fontStyle=1;" parent="1" vertex="1">
          <mxGeometry x="257.5" y="492" width="120" height="60" as="geometry" />
        </mxCell>
        <mxCell id="ZOrwr1EnmbZ73qofRrRA-31" value="" style="edgeStyle=orthogonalEdgeStyle;rounded=0;orthogonalLoop=1;jettySize=auto;exitX=0.25;exitY=0;exitDx=0;exitDy=0;entryX=1;entryY=0.75;entryDx=0;entryDy=0;fontColor=#0060AD;fontStyle=1;strokeColor=#0060AD;strokeWidth=2;" parent="1" source="ZOrwr1EnmbZ73qofRrRA-33" target="ZOrwr1EnmbZ73qofRrRA-25" edge="1">
          <mxGeometry relative="1" as="geometry" />
        </mxCell>
        <mxCell id="ZOrwr1EnmbZ73qofRrRA-32" value="Notifies" style="edgeLabel;align=center;verticalAlign=bottom;resizable=0;points=[];fontColor=#0060AD;horizontal=1;labelPosition=center;verticalLabelPosition=middle;spacingBottom=9;spacingLeft=-20;" parent="ZOrwr1EnmbZ73qofRrRA-31" vertex="1" connectable="0">
          <mxGeometry x="-0.178" y="-1" relative="1" as="geometry">
            <mxPoint as="offset" />
          </mxGeometry>
        </mxCell>
        <mxCell id="ZOrwr1EnmbZ73qofRrRA-33" value="Model" style="rounded=0;fontFamily=Open Sans;fillColor=none;fontColor=#0060ad;strokeColor=#0060ad;strokeWidth=2;fontStyle=1;" parent="1" vertex="1">
          <mxGeometry x="607.5" y="492" width="120" height="60" as="geometry" />
        </mxCell>
        <mxCell id="ZOrwr1EnmbZ73qofRrRA-34" value="Apple MVC" style="text;html=1;align=center;verticalAlign=middle;resizable=0;points=[];autosize=1;strokeColor=none;fillColor=none;" parent="1" vertex="1">
          <mxGeometry x="237.5" y="310" width="80" height="30" as="geometry" />
        </mxCell>
        <mxCell id="s8HSCA681le5WauZLWH6-1" value="" style="edgeStyle=orthogonalEdgeStyle;rounded=0;orthogonalLoop=1;jettySize=auto;entryX=0.5;entryY=0;entryDx=0;entryDy=0;fontColor=#0060ad;strokeColor=#0060ad;strokeWidth=2;fontStyle=1;align=center;labelPosition=center;verticalLabelPosition=middle;verticalAlign=middle;" edge="1" parent="1" source="s8HSCA681le5WauZLWH6-5" target="s8HSCA681le5WauZLWH6-8">
          <mxGeometry relative="1" as="geometry">
            <Array as="points">
              <mxPoint x="313" y="700" />
            </Array>
          </mxGeometry>
        </mxCell>
        <mxCell id="s8HSCA681le5WauZLWH6-2" value="Data binding" style="edgeLabel;align=center;verticalAlign=bottom;resizable=0;points=[];fontColor=#0060AD;horizontal=1;labelPosition=center;verticalLabelPosition=middle;" vertex="1" connectable="0" parent="s8HSCA681le5WauZLWH6-1">
          <mxGeometry x="0.0882" y="-1" relative="1" as="geometry">
            <mxPoint x="29" y="1" as="offset" />
          </mxGeometry>
        </mxCell>
        <mxCell id="s8HSCA681le5WauZLWH6-3" value="" style="edgeStyle=orthogonalEdgeStyle;rounded=0;orthogonalLoop=1;jettySize=auto;entryX=0.5;entryY=0;entryDx=0;entryDy=0;fontColor=#0060AD;fontStyle=1;strokeWidth=2;strokeColor=#0060AD;exitX=1;exitY=0.25;exitDx=0;exitDy=0;" edge="1" parent="1" source="s8HSCA681le5WauZLWH6-5" target="s8HSCA681le5WauZLWH6-11">
          <mxGeometry relative="1" as="geometry" />
        </mxCell>
        <mxCell id="s8HSCA681le5WauZLWH6-4" value="Updates" style="edgeLabel;align=center;verticalAlign=bottom;resizable=0;points=[];fontColor=#0060AD;horizontal=1;labelPosition=center;verticalLabelPosition=middle;" vertex="1" connectable="0" parent="s8HSCA681le5WauZLWH6-3">
          <mxGeometry x="-0.2685" relative="1" as="geometry">
            <mxPoint x="15" as="offset" />
          </mxGeometry>
        </mxCell>
        <mxCell id="s8HSCA681le5WauZLWH6-5" value="ViewModel" style="rounded=0;fillColor=none;fontFamily=Open Sans;fontColor=#0060ad;strokeColor=#0060ad;strokeWidth=2;fontStyle=1" vertex="1" parent="1">
          <mxGeometry x="422.5" y="670" width="120" height="60" as="geometry" />
        </mxCell>
        <mxCell id="s8HSCA681le5WauZLWH6-8" value="View&#xa;UIViewController" style="rounded=0;fontFamily=Open Sans;fillColor=none;fontColor=#0060ad;strokeColor=#0060ad;strokeWidth=2;fontStyle=1;" vertex="1" parent="1">
          <mxGeometry x="252.5" y="790" width="120" height="60" as="geometry" />
        </mxCell>
        <mxCell id="s8HSCA681le5WauZLWH6-9" value="" style="edgeStyle=orthogonalEdgeStyle;rounded=0;orthogonalLoop=1;jettySize=auto;exitX=0.25;exitY=0;exitDx=0;exitDy=0;entryX=1;entryY=0.75;entryDx=0;entryDy=0;fontColor=#0060AD;fontStyle=1;strokeColor=#0060AD;strokeWidth=2;" edge="1" parent="1" source="s8HSCA681le5WauZLWH6-11" target="s8HSCA681le5WauZLWH6-5">
          <mxGeometry relative="1" as="geometry" />
        </mxCell>
        <mxCell id="s8HSCA681le5WauZLWH6-10" value="Notifies" style="edgeLabel;align=center;verticalAlign=bottom;resizable=0;points=[];fontColor=#0060AD;horizontal=1;labelPosition=center;verticalLabelPosition=middle;spacingBottom=9;spacingLeft=-20;" vertex="1" connectable="0" parent="s8HSCA681le5WauZLWH6-9">
          <mxGeometry x="-0.178" y="-1" relative="1" as="geometry">
            <mxPoint x="-13" as="offset" />
          </mxGeometry>
        </mxCell>
        <mxCell id="s8HSCA681le5WauZLWH6-11" value="Model" style="rounded=0;fontFamily=Open Sans;fillColor=none;fontColor=#0060ad;strokeColor=#0060ad;strokeWidth=2;fontStyle=1;" vertex="1" parent="1">
          <mxGeometry x="602.5" y="790" width="120" height="60" as="geometry" />
        </mxCell>
        <mxCell id="s8HSCA681le5WauZLWH6-12" value="MVVM" style="text;html=1;align=center;verticalAlign=middle;resizable=0;points=[];autosize=1;strokeColor=none;fillColor=none;" vertex="1" parent="1">
          <mxGeometry x="220" y="600" width="60" height="30" as="geometry" />
        </mxCell>
      </root>
    </mxGraphModel>
  </diagram>
</mxfile>
